<?xml version="1.0" encoding="UTF-8"?>
<svg id="Layer_2" data-name="Layer 2" xmlns="http://www.w3.org/2000/svg" xmlns:xlink="http://www.w3.org/1999/xlink" viewBox="0 0 136.98 59.38">
  <defs>
    <style>
      .cls-1 {
        fill: #0e1117;
      }

      .cls-2 {
        fill: none;
      }

      .cls-3 {
        clip-path: url(#clippath);
      }
    </style>
    <clipPath id="clippath">
      <rect class="cls-2" width="136.98" height="59.38"/>
    </clipPath>
  </defs>
  <g id="Layer_7" data-name="Layer 7">
    <g class="cls-3">
      <g>
        <path class="cls-1" d="M47.37,31.37l-15.82,15.82,11.97-30.98c.04-.09-.06-.19-.15-.15l-30.94,12.01,15.82-15.82s.11-.07.18-.07l17.61,1.25c.06,0,.1.05.11.11l1.29,17.65c0,.07-.02.13-.07.18Z"/>
        <g>
          <path class="cls-1" d="M64.55,20.93l-4.94,14.12-4.91-14.12h-3l6.14,17.07h3.53l6.17-17.07h-3Z"/>
          <path class="cls-1" d="M78.61,32.5c.07-.32.09-.71.09-1.13,0-1.1-.24-2.1-.74-3.02-.49-.89-1.24-1.6-2.17-2.13-.91-.49-1.99-.76-3.23-.76s-2.3.26-3.25.78c-.93.52-1.69,1.28-2.21,2.25-.54.98-.8,2.13-.8,3.43s.26,2.47.8,3.45c.52,1,1.28,1.76,2.21,2.28.95.52,2.04.78,3.25.78,1.04,0,2.02-.2,2.86-.59.85-.39,1.56-.96,2.1-1.63.54-.69.89-1.5,1.07-2.39l.02-.11h-3.23c-.13.65-.43,1.15-.98,1.52-.52.39-1.18.59-1.96.59-.89,0-1.63-.26-2.21-.83-.54-.5-.85-1.28-.93-2.3h9.26l.04-.22ZM69.31,31.02c.09-.95.41-1.69.98-2.19.61-.54,1.37-.83,2.28-.83.56,0,1.1.13,1.58.35.48.24.85.61,1.1,1.08.26.44.37.98.39,1.58h-6.33Z"/>
          <path class="cls-1" d="M89.82,33.26h3.21l-.07.3c-.26,1.5-.93,2.69-2.02,3.56-1.06.87-2.43,1.32-4.06,1.32-1.22,0-2.3-.26-3.23-.78-.95-.52-1.71-1.28-2.23-2.28-.54-.95-.8-2.13-.8-3.45s.26-2.45.8-3.43c.52-.98,1.28-1.74,2.23-2.26.93-.52,2.02-.78,3.23-.78,1.63,0,2.99.43,4.06,1.3,1.08.87,1.76,2.06,2.02,3.54l.07.33h-3.21l-.04-.22c-.13-.72-.46-1.24-.98-1.65-.5-.39-1.17-.59-1.95-.59-.89,0-1.63.3-2.21.93-.61.63-.91,1.58-.91,2.82s.3,2.19.91,2.84c.59.63,1.32.93,2.21.93.78,0,1.45-.2,1.95-.59.52-.41.85-.95.98-1.65l.04-.22Z"/>
          <path class="cls-1" d="M111.4,28.68h-1.02c-1.04,0-1.87.26-2.47.76-.61.48-.91,1.3-.91,2.43l.02,6.13h-3.04l-.04-12.38h3.06v1.71c.37-.46.82-.87,1.35-1.19.8-.48,1.74-.74,2.78-.74h.26l.02,3.28Z"/>
          <path class="cls-1" d="M121.62,25.97v1.86c-.31-.48-.7-.87-1.18-1.21-.76-.54-1.72-.8-2.83-.8-1.04,0-1.99.25-2.82.74-.83.5-1.49,1.22-1.97,2.16-.46.93-.7,2.03-.7,3.27s.24,2.36.7,3.3c.48.93,1.14,1.66,1.97,2.15.83.5,1.79.77,2.82.77,1.12,0,2.07-.29,2.83-.83.48-.33.87-.73,1.18-1.18v1.86h2.93v-12.1h-2.93ZM121.32,34.28c-.3.54-.72.98-1.21,1.28-.52.3-1.11.46-1.76.46-1.04,0-1.86-.32-2.47-.98-.6-.65-.93-1.58-.93-2.75s.33-2.11.93-2.75c.61-.65,1.43-.98,2.47-.98.65,0,1.24.15,1.76.46.49.3.91.74,1.21,1.3.3.56.46,1.24.46,1.97s-.15,1.43-.46,1.99Z"/>
          <path class="cls-1" d="M98.35,35.06v-8.04h3.22v-2.36h-3.22v-3.29h-2.78v3.29h-1.91v2.36h1.91v8.62h0c0,1.31,1.06,2.36,2.36,2.36h3.97v-2.36h-2.97c-.32,0-.58-.26-.58-.58Z"/>
        </g>
      </g>
    </g>
  </g>
</svg>